<svg width="18" height="16" viewBox="0 0 18 16" fill="none" xmlns="http://www.w3.org/2000/svg">
<path d="M11.3019 7.59999L4.18616 6.39999V15.2671C4.18624 15.3634 4.20615 15.4588 4.24473 15.5477C4.28332 15.6367 4.33984 15.7175 4.41105 15.7856C4.48227 15.8536 4.56679 15.9076 4.65979 15.9444C4.75279 15.9812 4.85245 16.0001 4.95308 16H17.2316C17.3324 16.0002 17.4322 15.9815 17.5253 15.9447C17.6185 15.908 17.7031 15.8541 17.7745 15.786C17.8458 15.7179 17.9025 15.6371 17.9411 15.548C17.9798 15.459 17.9998 15.3635 17.9998 15.2671V12L11.3019 7.59999Z" fill="#185C37"/>
<path d="M11.3019 2.58371e-07H4.95308C4.85245 -8.0589e-05 4.75279 0.0188129 4.65979 0.055602C4.56679 0.0923911 4.48227 0.146355 4.41105 0.214414C4.33984 0.282472 4.28332 0.363291 4.24473 0.452257C4.20615 0.541223 4.18624 0.636594 4.18616 0.732923V4L11.3019 8L15.0697 9.2L17.9998 8V4L11.3019 2.58371e-07Z" fill="#21A366"/>
<path d="M4.18616 4H11.3019V8H4.18616V4Z" fill="#107C41"/>
<path opacity="0.1" d="M9.27886 3.20001H4.18616V13.2H9.27886C9.48179 13.199 9.67615 13.1216 9.81982 12.9844C9.9635 12.8472 10.0449 12.6613 10.0464 12.4671V3.93294C10.0449 3.73868 9.9635 3.55283 9.81982 3.41564C9.67615 3.27845 9.48179 3.20098 9.27886 3.20001Z" fill="black"/>
<path opacity="0.2" d="M8.86036 3.60001H4.18616V13.6H8.86036C9.06329 13.599 9.25765 13.5216 9.40132 13.3844C9.545 13.2472 9.62641 13.0613 9.62793 12.8671V4.33293C9.62641 4.13868 9.545 3.95282 9.40132 3.81563C9.25765 3.67844 9.06329 3.60097 8.86036 3.60001Z" fill="black"/>
<path opacity="0.2" d="M8.86036 3.60001H4.18616V12.8H8.86036C9.06329 12.799 9.25765 12.7216 9.40132 12.5844C9.545 12.4472 9.62641 12.2613 9.62793 12.0671V4.33293C9.62641 4.13868 9.545 3.95282 9.40132 3.81563C9.25765 3.67844 9.06329 3.60097 8.86036 3.60001Z" fill="black"/>
<path opacity="0.2" d="M8.44186 3.60001H4.18616V12.8H8.44186C8.64479 12.799 8.83915 12.7216 8.98282 12.5844C9.1265 12.4472 9.20791 12.2613 9.20943 12.0671V4.33293C9.20791 4.13868 9.1265 3.95282 8.98282 3.81563C8.83915 3.67844 8.64479 3.60097 8.44186 3.60001Z" fill="black"/>
<path d="M0.76757 3.60001H8.44198C8.64528 3.59984 8.84032 3.67695 8.98425 3.81438C9.12817 3.95181 9.20921 4.13833 9.20955 4.33293V11.6671C9.20921 11.8617 9.12817 12.0482 8.98425 12.1856C8.84032 12.3231 8.64528 12.4002 8.44198 12.4H0.76757C0.666886 12.4002 0.567156 12.3813 0.474079 12.3446C0.381003 12.3078 0.296405 12.2539 0.225121 12.1858C0.153837 12.1177 0.0972648 12.0369 0.0586373 11.9479C0.0200097 11.8589 8.43247e-05 11.7635 0 11.6671V4.33293C8.43247e-05 4.23655 0.0200097 4.14113 0.0586373 4.05212C0.0972648 3.96312 0.153837 3.88227 0.225121 3.8142C0.296405 3.74614 0.381003 3.69218 0.474079 3.65543C0.567156 3.61868 0.666886 3.59985 0.76757 3.60001Z" fill="url(#paint0_linear_291_2234)"/>
<path d="M2.37866 10.3834L3.99287 7.99322L2.5143 5.61661H3.70166L4.50844 7.13845C4.58301 7.28245 4.63702 7.38953 4.66144 7.46092H4.67237C4.72509 7.34522 4.78101 7.23384 4.83951 7.12492L5.70223 5.61907H6.79508L5.27859 7.98215L6.83365 10.3852H5.67073L4.73859 8.71692C4.69531 8.64519 4.65853 8.57004 4.62866 8.4923H4.61323C4.58605 8.56804 4.54981 8.64053 4.50523 8.7083L3.54545 10.3834H2.37866Z" fill="white"/>
<path d="M17.2323 1.03305e-06H11.302V4H17.9999V0.732924C17.9998 0.636543 17.9799 0.541122 17.9413 0.452116C17.9027 0.363109 17.8461 0.282263 17.7748 0.214196C17.7035 0.14613 17.6189 0.0921788 17.5258 0.0554259C17.4328 0.0186731 17.333 -0.000160715 17.2323 1.03305e-06Z" fill="#33C481"/>
<path d="M11.302 8H17.9999V12H11.302V8Z" fill="#107C41"/>
<defs>
<linearGradient id="paint0_linear_291_2234" x1="1.60328" y1="3.02401" x2="7.22168" y2="13.1886" gradientUnits="userSpaceOnUse">
<stop stop-color="#18884F"/>
<stop offset="0.5" stop-color="#117E43"/>
<stop offset="1" stop-color="#0B6631"/>
</linearGradient>
</defs>
</svg>
